<svg width="247" height="42" viewBox="0 0 247 42" fill="none" xmlns="http://www.w3.org/2000/svg">
<path d="M66.0889 35.6823L59.5319 12.5903H59.3346C59.6416 16.523 59.7951 19.5786 59.7951 21.7569V35.6823H52.1197V3.62102H63.6547L70.3433 26.3841H70.5188L77.0758 3.62102H88.6327V35.6823H80.6722V21.6254C80.6722 20.8944 80.6796 20.083 80.6942 19.1911C80.7234 18.2993 80.8258 16.1137 81.0012 12.6342H80.8038L74.3345 35.6823H66.0889Z" fill="#88889B"/>
<path d="M103.655 35.6823H95.0801V10.8359H103.655V35.6823ZM94.8608 4.65172C94.8608 3.36517 95.219 2.40757 95.9354 1.77892C96.6517 1.15026 97.8067 0.835938 99.4003 0.835938C100.994 0.835938 102.156 1.15757 102.887 1.80085C103.618 2.44412 103.984 3.39441 103.984 4.65172C103.984 7.16633 102.456 8.42364 99.4003 8.42364C96.374 8.42364 94.8608 7.16633 94.8608 4.65172Z" fill="#88889B"/>
<path d="M125.321 35.6823V22.1297C125.321 20.4777 125.08 19.235 124.598 18.4017C124.13 17.5537 123.369 17.1298 122.317 17.1298C120.869 17.1298 119.824 17.7072 119.181 18.8622C118.538 20.0172 118.216 21.9982 118.216 24.8052V35.6823H109.641V10.8359H116.111L117.185 13.9061H117.69C118.421 12.7365 119.429 11.8593 120.716 11.2745C122.017 10.6897 123.508 10.3973 125.19 10.3973C127.938 10.3973 130.073 11.1941 131.593 12.7877C133.128 14.3812 133.896 16.6254 133.896 19.5201V35.6823H125.321Z" fill="#88889B"/>
<path d="M148.347 35.6823H139.773V10.8359H148.347V35.6823ZM139.554 4.65172C139.554 3.36517 139.912 2.40757 140.628 1.77892C141.345 1.15026 142.5 0.835938 144.093 0.835938C145.687 0.835938 146.849 1.15757 147.58 1.80085C148.311 2.44412 148.676 3.39441 148.676 4.65172C148.676 7.16633 147.149 8.42364 144.093 8.42364C141.067 8.42364 139.554 7.16633 139.554 4.65172Z" fill="#88889B"/>
<path d="M165.65 36.1209C161.586 36.1209 158.501 35.0244 156.396 32.8315C154.305 30.6385 153.26 27.4879 153.26 23.3797C153.26 19.2569 154.393 16.0625 156.659 13.7964C158.925 11.5304 162.149 10.3973 166.33 10.3973C169.21 10.3973 171.922 11.026 174.466 12.2833L171.944 18.621C170.906 18.1678 169.948 17.8096 169.071 17.5464C168.194 17.2686 167.28 17.1298 166.33 17.1298C164.941 17.1298 163.866 17.6707 163.106 18.7526C162.346 19.8344 161.966 21.3622 161.966 23.3359C161.966 27.3125 163.435 29.3008 166.374 29.3008C168.888 29.3008 171.301 28.5698 173.611 27.1078V33.928C171.403 35.3899 168.749 36.1209 165.65 36.1209Z" fill="#88889B"/>
<path d="M202.273 23.2043C202.273 27.2686 201.176 30.4411 198.983 32.7218C196.805 34.9879 193.749 36.1209 189.817 36.1209C186.045 36.1209 183.04 34.9586 180.804 32.6341C178.581 30.3095 177.47 27.1663 177.47 23.2043C177.47 19.1546 178.559 16.0113 180.738 13.7745C182.931 11.523 186.001 10.3973 189.948 10.3973C192.39 10.3973 194.546 10.9163 196.418 11.9543C198.289 12.9923 199.729 14.4836 200.738 16.428C201.761 18.3578 202.273 20.6166 202.273 23.2043ZM186.176 23.2043C186.176 25.3388 186.461 26.9689 187.032 28.0946C187.602 29.2057 188.559 29.7613 189.904 29.7613C191.235 29.7613 192.17 29.2057 192.711 28.0946C193.267 26.9689 193.545 25.3388 193.545 23.2043C193.545 21.0844 193.267 19.4835 192.711 18.4017C192.156 17.3198 191.206 16.7789 189.861 16.7789C188.545 16.7789 187.602 17.3198 187.032 18.4017C186.461 19.4689 186.176 21.0698 186.176 23.2043Z" fill="#88889B"/>
<path d="M215.803 35.6823H207.229V10.8359H215.803V35.6823ZM207.01 4.65172C207.01 3.36517 207.368 2.40757 208.084 1.77892C208.801 1.15026 209.956 0.835938 211.549 0.835938C213.143 0.835938 214.305 1.15757 215.036 1.80085C215.767 2.44412 216.132 3.39441 216.132 4.65172C216.132 7.16633 214.605 8.42364 211.549 8.42364C208.523 8.42364 207.01 7.16633 207.01 4.65172Z" fill="#88889B"/>
<path d="M237.47 35.6823V22.1297C237.47 20.4777 237.229 19.235 236.746 18.4017C236.279 17.5537 235.518 17.1298 234.466 17.1298C233.018 17.1298 231.973 17.7072 231.33 18.8622C230.686 20.0172 230.365 21.9982 230.365 24.8052V35.6823H221.79V10.8359H228.26L229.334 13.9061H229.838C230.569 12.7365 231.578 11.8593 232.865 11.2745C234.166 10.6897 235.657 10.3973 237.338 10.3973C240.087 10.3973 242.221 11.1941 243.742 12.7877C245.277 14.3812 246.045 16.6254 246.045 19.5201V35.6823H237.47Z" fill="#88889B"/>
<path fill-rule="evenodd" clip-rule="evenodd" d="M20.5847 41.5848C31.9534 41.5848 41.1695 32.3687 41.1695 21C41.1695 9.63138 31.9534 0.415283 20.5847 0.415283C9.2161 0.415283 0 9.63138 0 21C0 32.3687 9.2161 41.5848 20.5847 41.5848ZM26.7477 28.5935C27.8456 27.5871 28.3945 26.3612 28.3945 24.9157C28.3945 23.7446 28.0926 22.8114 27.4888 22.1161C26.9033 21.4025 26.1805 20.8719 25.3205 20.5242C24.4605 20.1583 23.3627 19.8106 22.027 19.4813V13.0863C23.6554 13.1778 25.2107 13.6901 26.6928 14.6233L27.5986 12.4276C26.885 11.9335 26.0341 11.5401 25.0461 11.2474C24.0763 10.9546 23.0699 10.7899 22.027 10.7534V7.65192H20.2704V10.7808C18.2394 10.9455 16.6932 11.531 15.632 12.5374C14.589 13.5437 14.0675 14.7697 14.0675 16.2152C14.0675 17.3679 14.3511 18.3011 14.9184 19.0147C15.5039 19.7283 16.2175 20.2681 17.0592 20.634C17.9192 21 18.9896 21.3385 20.2704 21.6495V28.0171C19.1725 27.9439 18.1204 27.7152 17.1141 27.3309C16.1077 26.9284 15.2752 26.4252 14.6165 25.8214L13.6009 27.9622C14.3145 28.6209 15.266 29.1698 16.4554 29.609C17.663 30.0298 18.9347 30.2768 20.2704 30.35V33.4515H22.027V30.35C24.0946 30.1853 25.6682 29.5998 26.7477 28.5935ZM17.663 17.9443C17.0592 17.5051 16.7573 16.8922 16.7573 16.1054C16.7573 15.3369 17.05 14.6873 17.6356 14.1567C18.2211 13.6078 19.0994 13.2601 20.2704 13.1137V19.0421C19.136 18.7494 18.2668 18.3834 17.663 17.9443ZM24.7716 27.0565C24.1678 27.5688 23.2529 27.8799 22.027 27.9896V22.0887C23.2163 22.418 24.122 22.8023 24.7442 23.2414C25.3846 23.6623 25.7048 24.2752 25.7048 25.0803C25.7048 25.8671 25.3937 26.5258 24.7716 27.0565Z" fill="#88889B"/>
</svg>
