<svg width="256" height="42" viewBox="0 0 256 42" fill="none" xmlns="http://www.w3.org/2000/svg">
<path d="M43.6419 37.1775L49.0645 4.51416H61.5685C63.9289 4.51416 65.8321 4.8863 67.2782 5.63058C68.7242 6.36423 69.729 7.36902 70.2925 8.64493C70.8667 9.92084 71.0155 11.3669 70.7391 12.983C70.5158 14.3015 70.0692 15.4339 69.3994 16.3802C68.7402 17.3158 67.9321 18.0814 66.9751 18.6768C66.0182 19.2616 64.9922 19.6816 63.897 19.9368L63.8332 20.2557C64.9815 20.3089 66.0342 20.6598 66.9911 21.3084C67.948 21.957 68.671 22.8714 69.1601 24.0516C69.6492 25.2212 69.7609 26.63 69.4951 28.278C69.208 29.9686 68.5435 31.4891 67.5015 32.8394C66.4595 34.1791 65.0453 35.2371 63.259 36.0133C61.4834 36.7895 59.3516 37.1775 56.8635 37.1775H43.6419ZM50.3883 32.2334H56.7519C58.889 32.2334 60.5052 31.824 61.6004 31.0053C62.6955 30.176 63.3494 29.1127 63.5621 27.8155C63.7216 26.848 63.6259 25.9761 63.275 25.1999C62.9241 24.4131 62.3446 23.7964 61.5366 23.3498C60.7285 22.8926 59.7184 22.664 58.5063 22.664H51.9672L50.3883 32.2334ZM52.7009 18.4057H58.5541C59.5748 18.4057 60.5212 18.2196 61.393 17.8475C62.2755 17.4647 63.0092 16.9277 63.594 16.2366C64.1894 15.5349 64.5562 14.7055 64.6945 13.7486C64.9177 12.4833 64.6519 11.4413 63.897 10.6226C63.1421 9.80388 61.8981 9.39453 60.165 9.39453H54.1682L52.7009 18.4057Z" fill="#88889B"/>
<path d="M85.4477 4.51416L80.025 37.1775H74.2515L79.6742 4.51416H85.4477Z" fill="#88889B"/>
<path d="M98.0589 37.656C95.6453 37.656 93.6358 37.1244 92.0303 36.0611C90.4354 34.9979 89.3136 33.504 88.665 31.5795C88.0164 29.655 87.8995 27.4221 88.3142 24.8809C88.7288 22.3716 89.5582 20.176 90.8022 18.294C92.0568 16.4121 93.6358 14.9554 95.539 13.924C97.4529 12.882 99.5954 12.361 101.966 12.361C104.38 12.361 106.384 12.898 107.979 13.9719C109.574 15.0351 110.696 16.529 111.344 18.4535C112.004 20.378 112.126 22.6215 111.711 25.184C111.307 27.6826 110.473 29.8676 109.207 31.739C107.953 33.6103 106.374 35.067 104.47 36.109C102.567 37.1403 100.43 37.656 98.0589 37.656ZM98.5374 33.0308C99.8771 33.0308 101.052 32.6693 102.062 31.9463C103.083 31.2127 103.918 30.2291 104.566 28.9958C105.225 27.7517 105.683 26.3695 105.938 24.849C106.172 23.3817 106.177 22.0527 105.954 20.8618C105.73 19.6603 105.252 18.7087 104.518 18.0069C103.795 17.2946 102.79 16.9384 101.504 16.9384C100.164 16.9384 98.9787 17.3105 97.9473 18.0548C96.9266 18.7884 96.0919 19.7773 95.4433 21.0213C94.7947 22.2547 94.3482 23.6316 94.1036 25.1521C93.8591 26.6194 93.8484 27.9484 94.0717 29.1393C94.295 30.3301 94.7735 31.2764 95.5071 31.9782C96.2408 32.68 97.2509 33.0308 98.5374 33.0308Z" fill="#88889B"/>
<path d="M126.603 37.656C124.158 37.656 122.148 37.1191 120.575 36.0452C119.001 34.9713 117.9 33.488 117.273 31.5954C116.656 29.6922 116.555 27.5019 116.97 25.0245C117.374 22.5364 118.209 20.3408 119.474 18.4376C120.75 16.5237 122.355 15.0351 124.291 13.9719C126.226 12.898 128.389 12.361 130.782 12.361C132.77 12.361 134.466 12.7279 135.87 13.4615C137.284 14.1845 138.336 15.2106 139.027 16.5396C139.729 17.8581 140 19.3998 139.841 21.1648H134.307C134.285 19.9846 133.918 19.0011 133.206 18.2143C132.494 17.4168 131.452 17.0181 130.08 17.0181C128.889 17.0181 127.794 17.3371 126.795 17.975C125.795 18.6024 124.95 19.5061 124.259 20.6864C123.568 21.8666 123.089 23.2807 122.823 24.9288C122.547 26.5981 122.552 28.0335 122.839 29.235C123.137 30.4258 123.674 31.3456 124.45 31.9941C125.237 32.6321 126.231 32.9511 127.433 32.9511C128.283 32.9511 129.075 32.7916 129.809 32.4726C130.543 32.143 131.186 31.6699 131.739 31.0532C132.302 30.4365 132.744 29.6869 133.063 28.8044H138.581C138.145 30.5375 137.369 32.0739 136.252 33.4136C135.147 34.7427 133.775 35.7847 132.137 36.5396C130.5 37.2839 128.655 37.656 126.603 37.656Z" fill="#88889B"/>
<path d="M149.773 29.4902L150.905 22.5205H151.83L162.309 12.68H169.055L156.232 24.7374H155.052L149.773 29.4902ZM143.25 37.1775L148.672 4.51416H154.446L149.023 37.1775H143.25ZM158.624 37.1775L152.5 26.0293L157.077 21.9623L165.53 37.1775H158.624Z" fill="#88889B"/>
<path d="M186.483 12.68L185.733 17.1457H171.666L172.4 12.68H186.483ZM176.834 6.8108H182.607L178.779 29.8091C178.663 30.5853 178.684 31.1808 178.843 31.5954C179.013 31.9995 179.285 32.2759 179.657 32.4248C180.039 32.5736 180.47 32.6481 180.949 32.6481C181.299 32.6481 181.629 32.6215 181.937 32.5683C182.246 32.5045 182.49 32.4567 182.671 32.4248L182.926 36.9383C182.575 37.0446 182.102 37.1616 181.507 37.2892C180.922 37.4168 180.22 37.4912 179.401 37.5125C177.934 37.5444 176.658 37.3211 175.574 36.8426C174.5 36.3535 173.713 35.6039 173.213 34.5938C172.724 33.5731 172.613 32.2972 172.878 30.7661L176.834 6.8108Z" fill="#88889B"/>
<path d="M205.896 26.8745L208.273 12.68H214.046L209.963 37.1775H204.365L205.099 32.8235H204.844C204.078 34.1951 202.983 35.3168 201.558 36.1887C200.144 37.0606 198.517 37.4965 196.678 37.4965C195.072 37.4965 193.717 37.1403 192.611 36.4279C191.505 35.7049 190.718 34.6576 190.25 33.286C189.793 31.9038 189.724 30.2345 190.043 28.278L192.659 12.68H198.432L195.976 27.3849C195.732 28.9373 195.955 30.1707 196.646 31.0851C197.348 31.9995 198.39 32.4567 199.772 32.4567C200.623 32.4567 201.478 32.2493 202.34 31.8347C203.212 31.42 203.972 30.8033 204.62 29.9846C205.269 29.1552 205.694 28.1186 205.896 26.8745Z" fill="#88889B"/>
<path d="M224.233 37.672C222.681 37.672 221.331 37.3955 220.182 36.8426C219.034 36.2791 218.189 35.4497 217.646 34.3546C217.115 33.2594 216.982 31.9091 217.248 30.3036C217.482 28.9213 217.928 27.7783 218.587 26.8745C219.257 25.9708 220.076 25.2478 221.043 24.7055C222.022 24.1526 223.085 23.7379 224.233 23.4615C225.392 23.185 226.572 22.983 227.774 22.8554C229.241 22.7066 230.427 22.5683 231.331 22.4407C232.245 22.3132 232.931 22.1218 233.388 21.8666C233.845 21.6008 234.122 21.1967 234.217 20.6545V20.5588C234.409 19.3573 234.217 18.4269 233.643 17.7677C233.069 17.1085 232.112 16.7789 230.772 16.7789C229.369 16.7789 228.189 17.0872 227.232 17.7039C226.275 18.3206 225.578 19.0489 225.142 19.8889L219.911 19.1234C220.57 17.6348 221.474 16.3908 222.622 15.3913C223.771 14.3812 225.094 13.6263 226.594 13.1266C228.104 12.6162 229.714 12.361 231.426 12.361C232.596 12.361 233.739 12.4993 234.855 12.7757C235.982 13.0521 236.976 13.5093 237.838 14.1473C238.71 14.7746 239.348 15.6306 239.752 16.7151C240.166 17.7996 240.235 19.1553 239.959 20.7821L237.232 37.1775H231.681L232.256 33.8123H232.064C231.607 34.4928 231.012 35.1308 230.278 35.7262C229.544 36.311 228.672 36.7841 227.662 37.1456C226.652 37.4965 225.509 37.672 224.233 37.672ZM226.418 33.4296C227.577 33.4296 228.619 33.201 229.544 32.7437C230.469 32.2759 231.229 31.6592 231.825 30.8937C232.42 30.1281 232.792 29.2935 232.941 28.3897L233.42 25.5029C233.207 25.6518 232.878 25.79 232.431 25.9176C231.984 26.0452 231.485 26.1568 230.932 26.2525C230.39 26.3482 229.853 26.4333 229.321 26.5077C228.789 26.5821 228.332 26.6459 227.949 26.6991C227.067 26.8161 226.259 27.0075 225.525 27.2733C224.802 27.5391 224.201 27.9112 223.723 28.3897C223.255 28.8575 222.963 29.4636 222.846 30.2079C222.676 31.2605 222.925 32.0633 223.595 32.6162C224.265 33.1584 225.206 33.4296 226.418 33.4296Z" fill="#88889B"/>
<path d="M255.581 4.51416L250.158 37.1775H244.384L249.807 4.51416H255.581Z" fill="#88889B"/>
<circle cx="20.6294" cy="21" r="10.6043" stroke="#88889B" stroke-width="4.99024"/>
<circle cx="20.6294" cy="21" r="19.3372" stroke="#88889B" stroke-width="2.49512"/>
</svg>
