<svg width="283" height="46" viewBox="0 0 283 46" fill="none" xmlns="http://www.w3.org/2000/svg">
<path d="M89.3987 27.6392L89.6682 36.8013H81.7637L71.4788 18.8813H71.0297L70.9848 26.6062L71.2542 36.8013H64.6521L65.0114 28.268L64.6521 7.83294H72.5118L82.8416 25.7529H83.2907L83.111 8.10241L89.8029 7.69821L89.3987 27.6392Z" fill="#88889B"/>
<path d="M112.737 27.4596L100.97 27.5494C101.18 29.1063 101.718 30.2591 102.587 31.0076C103.455 31.7561 104.683 32.1304 106.27 32.1304C107.856 32.1304 109.952 31.6663 112.557 30.7381L113.096 31.0974L112.018 36.1725C109.623 36.921 107.452 37.2953 105.506 37.2953C102.063 37.2953 99.3531 36.3222 97.377 34.376C95.4308 32.4298 94.4577 29.7501 94.4577 26.3368C94.4577 22.9234 95.4008 20.2437 97.2871 18.2975C99.1734 16.3213 101.733 15.3333 104.967 15.3333C107.752 15.3333 109.907 16.0818 111.434 17.5789C112.991 19.076 113.77 21.1569 113.77 23.8217C113.77 24.69 113.68 25.6032 113.5 26.5613L112.737 27.4596ZM107.617 23.0582C107.617 20.9922 106.719 19.9592 104.922 19.9592C103.904 19.9592 103.066 20.3036 102.407 20.9922C101.748 21.6509 101.299 22.609 101.06 23.8666L107.527 23.6869L107.617 23.0582Z" fill="#88889B"/>
<path d="M125.068 18.3873L127.314 22.2947L129.649 18.1178L130.817 15.8273H136.97L131.131 26.1571L137.149 36.5767L129.649 37.1157L128.571 34.2413L126.326 30.1992L123.811 34.5557L122.778 36.8013H116.58L122.418 26.2918L116.535 15.962L124.125 15.6477L125.068 18.3873Z" fill="#88889B"/>
<path d="M150.518 31.5915C151.416 31.5915 152.374 31.3669 153.392 30.9178L153.886 31.4567L153.213 35.5437C151.716 36.3821 150.159 36.9061 148.542 37.1157C146.356 36.9959 144.694 36.427 143.556 35.409C142.419 34.3611 141.85 32.9388 141.85 31.1424L142.074 27.0553L142.029 20.1838H139.245L139.02 19.8245L139.335 15.962H141.985V12.3691L148.497 10.4378L148.991 10.887L148.811 15.962H153.752L153.976 16.3663L153.662 20.1838H148.676L148.407 29.256C148.407 30.1243 148.557 30.7381 148.856 31.0974C149.185 31.4268 149.739 31.5915 150.518 31.5915Z" fill="#88889B"/>
<path d="M170.502 7.78803C173.616 7.78803 176.011 8.56651 177.688 10.1235C179.395 11.6804 180.248 13.8961 180.248 16.7705C180.248 19.0161 179.739 20.9922 178.721 22.6989C177.703 24.3756 176.266 25.678 174.409 26.6062C172.553 27.5344 170.397 27.9985 167.942 27.9985H165.337L165.607 36.8013H158.286L158.69 28.2231L158.286 7.83294L170.502 7.78803ZM169.244 22.7438C170.382 22.3545 171.221 21.7407 171.76 20.9024C172.328 20.0341 172.613 18.8963 172.613 17.4891C172.613 15.992 172.239 14.8842 171.49 14.1656C170.771 13.447 169.634 13.0577 168.077 12.9978L165.652 13.1326L165.427 22.5641L169.244 22.7438Z" fill="#88889B"/>
<path d="M191.4 27.5045L191.715 36.8013H184.618L184.978 28.1782L184.708 5.76698L191.76 5.27295L191.4 27.5045Z" fill="#88889B"/>
<path d="M206.872 15.3333C209.357 15.3333 211.288 15.8722 212.665 16.9501C214.043 17.9981 214.731 19.5101 214.731 21.4862C214.731 22.1749 214.701 22.9683 214.642 23.8666C214.582 24.7648 214.537 25.6182 214.507 26.4266C214.357 28.5824 214.282 30.0645 214.282 30.8729C214.282 31.2921 214.342 31.5915 214.462 31.7711C214.612 31.9508 214.851 32.0406 215.18 32.0406C215.45 32.0406 215.779 31.9807 216.169 31.8609L216.663 32.2652L216.034 35.9929C215.046 36.6815 213.833 37.0857 212.396 37.2055C211.498 37.1157 210.734 36.8013 210.105 36.2623C209.477 35.7234 209.028 34.9599 208.758 33.9718H208.444C206.947 35.5587 205.42 36.6516 203.863 37.2504C201.647 37.2205 199.895 36.6216 198.608 35.4539C197.35 34.2862 196.722 32.6993 196.722 30.6932C196.722 27.6093 198.338 25.7978 201.572 25.2589L208.219 24.1361V22.8336C208.219 21.9054 208.01 21.2467 207.59 20.8575C207.201 20.4383 206.557 20.2287 205.659 20.2287C204.761 20.2287 203.788 20.4233 202.74 20.8126C201.722 21.2018 200.539 21.8156 199.192 22.654L198.743 22.3396L197.934 17.7136C199.282 16.9651 200.734 16.3812 202.291 15.962C203.848 15.5429 205.375 15.3333 206.872 15.3333ZM204.357 28.2231C203.908 28.3129 203.563 28.4925 203.324 28.762C203.114 29.0315 203.009 29.4357 203.009 29.9746C203.009 30.6932 203.189 31.2471 203.548 31.6364C203.937 32.0256 204.461 32.2202 205.12 32.2202C206.078 32.2202 207.096 31.7112 208.174 30.6932L208.219 27.4596L204.357 28.2231Z" fill="#88889B"/>
<path d="M233.967 24.2708C234.027 22.2048 233.189 21.1719 231.452 21.1719C230.404 21.1719 229.267 21.621 228.039 22.5192V27.5045L228.353 36.8013H221.257L221.572 28.2231L221.302 16.2315L228.084 15.6926V18.7915H228.353C229.97 17.2645 231.767 16.1716 233.743 15.5129C235.988 15.5129 237.695 16.0369 238.863 17.0848C240.061 18.1029 240.644 19.57 240.614 21.4862L240.435 27.5045L240.704 36.8013H233.608L233.967 24.2708Z" fill="#88889B"/>
<path d="M263.572 27.4596L251.805 27.5494C252.014 29.1063 252.553 30.2591 253.421 31.0076C254.29 31.7561 255.517 32.1304 257.104 32.1304C258.691 32.1304 260.787 31.6663 263.392 30.7381L263.931 31.0974L262.853 36.1725C260.458 36.921 258.287 37.2953 256.341 37.2953C252.897 37.2953 250.188 36.3222 248.212 34.376C246.265 32.4298 245.292 29.7501 245.292 26.3368C245.292 22.9234 246.235 20.2437 248.122 18.2975C250.008 16.3213 252.568 15.3333 255.802 15.3333C258.586 15.3333 260.742 16.0818 262.269 17.5789C263.826 19.076 264.605 21.1569 264.605 23.8217C264.605 24.69 264.515 25.6032 264.335 26.5613L263.572 27.4596ZM258.452 23.0582C258.452 20.9922 257.553 19.9592 255.757 19.9592C254.739 19.9592 253.9 20.3036 253.242 20.9922C252.583 21.6509 252.134 22.609 251.894 23.8666L258.362 23.6869L258.452 23.0582Z" fill="#88889B"/>
<path d="M278.777 31.5915C279.675 31.5915 280.634 31.3669 281.652 30.9178L282.146 31.4567L281.472 35.5437C279.975 36.3821 278.418 36.9061 276.801 37.1157C274.615 36.9959 272.954 36.427 271.816 35.409C270.678 34.3611 270.109 32.9388 270.109 31.1424L270.334 27.0553L270.289 20.1838H267.504L267.28 19.8245L267.594 15.962H270.244V12.3691L276.756 10.4378L277.25 10.887L277.071 15.962H282.011L282.235 16.3663L281.921 20.1838H276.936L276.666 29.256C276.666 30.1243 276.816 30.7381 277.115 31.0974C277.445 31.4268 277.999 31.5915 278.777 31.5915Z" fill="#88889B"/>
<path d="M4.07568 20.5049C5.83414 13.4354 11.4612 1.7915 25.1773 1.7915C38.8933 1.7915 45.3996 13.4354 46.2788 20.5049M46.2788 20.5049L39.6846 16.7622M46.2788 20.5049L50.2354 14.2671" stroke="#88889B" stroke-width="2.49512"/>
<path d="M46.4927 25.4952C44.7818 32.5647 39.3068 44.2086 25.9615 44.2086C12.6161 44.2086 6.28565 32.5647 5.43018 25.4952M5.43018 25.4952L11.8462 29.2379M5.43018 25.4952L1.58057 31.733" stroke="#88889B" stroke-width="2.49512"/>
</svg>
