<svg width="237" height="46" viewBox="0 0 237 46" fill="none" xmlns="http://www.w3.org/2000/svg">
<path d="M64.3575 1.89128V23.5839C64.3575 26.9074 63.4442 29.4673 61.6178 31.2638C59.8213 33.0603 57.3212 33.9586 54.1175 33.9586C50.6443 33.9586 47.8897 32.9855 45.8536 31.0393C43.8176 29.0631 42.7996 26.2337 42.7996 22.5509H50.3898C50.3898 25.5151 51.5126 26.9972 53.7582 26.9972C55.7044 26.9972 56.6775 25.8594 56.6775 23.5839V1.89128H64.3575Z" fill="#88889B"/>
<path d="M80.2936 8.26881C82.2098 8.26881 83.8566 8.70296 85.2339 9.57126C86.6112 10.4396 87.6292 11.6222 88.2879 13.1193V8.58319H95.923V33.6442H88.2879V29.108C87.6292 30.6051 86.6112 31.7878 85.2339 32.6561C83.8566 33.5244 82.2098 33.9586 80.2936 33.9586C78.2276 33.9586 76.3712 33.4496 74.7244 32.4315C73.1076 31.3836 71.8201 29.8865 70.862 27.9403C69.9338 25.9941 69.4697 23.7186 69.4697 21.1137C69.4697 18.4788 69.9338 16.2033 70.862 14.287C71.8201 12.3408 73.1076 10.8587 74.7244 9.84073C76.3712 8.79278 78.2276 8.26881 80.2936 8.26881ZM82.7637 15.0056C81.1169 15.0056 79.7845 15.5446 78.7665 16.6225C77.7785 17.7004 77.2844 19.1974 77.2844 21.1137C77.2844 23.0299 77.7785 24.527 78.7665 25.6049C79.7845 26.6828 81.1169 27.2217 82.7637 27.2217C84.3806 27.2217 85.698 26.6678 86.716 25.56C87.7639 24.4522 88.2879 22.9701 88.2879 21.1137C88.2879 19.2274 87.7639 17.7453 86.716 16.6674C85.698 15.5595 84.3806 15.0056 82.7637 15.0056Z" fill="#88889B"/>
<path d="M113.876 8.26881C117.11 8.26881 119.819 9.16705 122.005 10.9635C124.191 12.7301 125.568 15.1703 126.137 18.2842H118.008C117.768 17.2063 117.274 16.368 116.526 15.7691C115.777 15.1703 114.834 14.8709 113.696 14.8709C112.349 14.8709 111.241 15.4098 110.373 16.4877C109.504 17.5357 109.07 19.0777 109.07 21.1137C109.07 23.1497 109.504 24.7067 110.373 25.7845C111.241 26.8325 112.349 27.3565 113.696 27.3565C114.834 27.3565 115.777 27.0571 116.526 26.4582C117.274 25.8594 117.768 25.021 118.008 23.9431H126.137C125.568 27.0571 124.191 29.5123 122.005 31.3087C119.819 33.0753 117.11 33.9586 113.876 33.9586C111.421 33.9586 109.235 33.4496 107.319 32.4315C105.432 31.3836 103.95 29.8865 102.872 27.9403C101.795 25.9941 101.256 23.7186 101.256 21.1137C101.256 18.4788 101.78 16.2033 102.828 14.287C103.905 12.3408 105.402 10.8587 107.319 9.84073C109.235 8.79278 111.421 8.26881 113.876 8.26881Z" fill="#88889B"/>
<path d="M146.673 33.6442L139.173 23V33.6442H131.493V0.40918H139.173V18.6435L146.673 8.58319H155.701L145.595 21.1137L155.925 33.6442H146.673Z" fill="#88889B"/>
<path d="M175.707 8.26881C177.773 8.26881 179.614 8.79278 181.231 9.84073C182.878 10.8587 184.165 12.3408 185.093 14.287C186.051 16.2033 186.53 18.4788 186.53 21.1137C186.53 23.7186 186.051 25.9941 185.093 27.9403C184.165 29.8865 182.878 31.3836 181.231 32.4315C179.614 33.4496 177.773 33.9586 175.707 33.9586C173.79 33.9586 172.144 33.5244 170.766 32.6561C169.389 31.7878 168.386 30.6051 167.757 29.108V45.5908H160.077V8.58319H167.757V13.1193C168.386 11.6222 169.389 10.4396 170.766 9.57126C172.144 8.70296 173.79 8.26881 175.707 8.26881ZM173.236 15.0056C171.62 15.0056 170.287 15.5595 169.239 16.6674C168.221 17.7453 167.712 19.2274 167.712 21.1137C167.712 22.9701 168.221 24.4522 169.239 25.56C170.287 26.6678 171.62 27.2217 173.236 27.2217C174.883 27.2217 176.201 26.6828 177.189 25.6049C178.207 24.527 178.716 23.0299 178.716 21.1137C178.716 19.1974 178.207 17.7004 177.189 16.6225C176.201 15.5446 174.883 15.0056 173.236 15.0056Z" fill="#88889B"/>
<path d="M203.585 8.26881C206.07 8.26881 208.286 8.79278 210.232 9.84073C212.208 10.8587 213.75 12.3408 214.858 14.287C215.996 16.2332 216.565 18.5088 216.565 21.1137C216.565 23.7186 215.996 25.9941 214.858 27.9403C213.75 29.8865 212.208 31.3836 210.232 32.4315C208.286 33.4496 206.07 33.9586 203.585 33.9586C201.1 33.9586 198.869 33.4496 196.893 32.4315C194.917 31.3836 193.36 29.8865 192.222 27.9403C191.115 25.9941 190.561 23.7186 190.561 21.1137C190.561 18.5088 191.115 16.2332 192.222 14.287C193.36 12.3408 194.917 10.8587 196.893 9.84073C198.869 8.79278 201.1 8.26881 203.585 8.26881ZM203.585 14.9158C202.118 14.9158 200.875 15.4548 199.857 16.5326C198.869 17.5806 198.375 19.1076 198.375 21.1137C198.375 23.1198 198.869 24.6468 199.857 25.6947C200.875 26.7427 202.118 27.2666 203.585 27.2666C205.052 27.2666 206.28 26.7427 207.268 25.6947C208.256 24.6468 208.75 23.1198 208.75 21.1137C208.75 19.1076 208.256 17.5806 207.268 16.5326C206.28 15.4548 205.052 14.9158 203.585 14.9158Z" fill="#88889B"/>
<path d="M236.087 27.0421V33.6442H232.629C229.694 33.6442 227.404 32.9256 225.757 31.4884C224.14 30.0213 223.332 27.611 223.332 24.2575V15.0505H219.963V8.58319H223.332V2.43022H231.012V8.58319H236.042V15.0505H231.012V24.3923C231.012 25.3803 231.206 26.069 231.596 26.4582C232.015 26.8475 232.703 27.0421 233.662 27.0421H236.087Z" fill="#88889B"/>
<path fill-rule="evenodd" clip-rule="evenodd" d="M17.9395 19.1596C23.3104 20.7924 29.3587 16.543 31.4487 9.6683C31.6293 9.07425 31.7744 8.48003 31.8854 7.88906C34.0091 11.4126 34.6874 15.7882 33.3966 20.0342C30.9799 27.9832 22.577 32.468 14.6281 30.0514C6.67921 27.6347 2.1944 19.2318 4.61101 11.2829C5.90191 7.03678 8.90098 3.77911 12.6266 2.03385C12.3898 2.58664 12.1796 3.16114 11.999 3.75524C9.90896 10.63 12.5686 17.5267 17.9395 19.1596Z" fill="#88889B"/>
</svg>
