<svg width="182" height="32" viewBox="0 0 182 32" fill="none" xmlns="http://www.w3.org/2000/svg">
<path d="M44.1008 5.34592H52.1351V31.1517H57.3312V5.34592H65.4092V0.586474H44.1008V5.34592Z" fill="#88889B"/>
<path d="M71.9643 15.8691C71.9643 14.2972 72.2117 12.8562 72.7066 11.5463C73.2306 10.2072 73.9583 9.05741 74.8898 8.09679C75.8213 7.10705 76.913 6.3502 78.1647 5.82623C79.4455 5.27314 80.8573 4.9966 82.4001 4.9966C83.9138 4.9966 85.2966 5.27314 86.5483 5.82623C87.8291 6.3502 88.9353 7.10705 89.8668 8.09679C90.7983 9.05741 91.5115 10.2072 92.0064 11.5463C92.5012 12.8562 92.7487 14.2972 92.7487 15.8691C92.7487 17.441 92.4867 18.8965 91.9627 20.2355C91.4678 21.5455 90.7546 22.6953 89.8231 23.685C88.8916 24.6457 87.7854 25.4025 86.5046 25.9556C85.2529 26.4796 83.8702 26.7416 82.3565 26.7416C80.8428 26.7416 79.4455 26.4796 78.1647 25.9556C76.913 25.4025 75.8213 24.6457 74.8898 23.685C73.9583 22.6953 73.2306 21.5455 72.7066 20.2355C72.2117 18.8965 71.9643 17.441 71.9643 15.8691ZM66.5062 15.8691C66.5062 18.1396 66.8992 20.2501 67.6852 22.2005C68.4711 24.1217 69.5773 25.8101 71.0037 27.2655C72.4301 28.6919 74.1039 29.8126 76.0251 30.6277C77.9464 31.4137 80.0568 31.8067 82.3565 31.8067C84.6561 31.8067 86.7666 31.4137 88.6878 30.6277C90.6382 29.8126 92.3266 28.6919 93.7529 27.2655C95.1793 25.8101 96.2855 24.1217 97.0714 22.2005C97.8574 20.2501 98.2504 18.1396 98.2504 15.8691C98.2504 13.5985 97.8574 11.5026 97.0714 9.58138C96.2855 7.63103 95.1648 5.95722 93.7093 4.55995C92.2829 3.13358 90.5945 2.02741 88.6442 1.24144C86.7229 0.455481 84.627 0.0625 82.3565 0.0625C80.0859 0.0625 77.99 0.455481 76.0688 1.24144C74.1475 2.02741 72.4592 3.13358 71.0037 4.55995C69.5773 5.95722 68.4711 7.63103 67.6852 9.58138C66.8992 11.5026 66.5062 13.5985 66.5062 15.8691Z" fill="#88889B"/>
<path d="M104.571 0.586474V31.1517H109.724V0.586474H104.571ZM107.628 5.12759H113.784C114.978 5.12759 116.011 5.31681 116.885 5.69523C117.758 6.07366 118.442 6.62674 118.937 7.35449C119.432 8.08223 119.679 8.99919 119.679 10.1054C119.679 11.1824 119.432 12.0994 118.937 12.8562C118.442 13.584 117.758 14.1371 116.885 14.5155C116.011 14.8648 114.978 15.0395 113.784 15.0395H107.628V19.5806H113.784C116.026 19.5806 117.962 19.2021 119.592 18.4453C121.222 17.6593 122.488 16.5677 123.391 15.1705C124.293 13.7441 124.744 12.0557 124.744 10.1054C124.744 8.15501 124.293 6.46664 123.391 5.04026C122.488 3.61389 121.222 2.52227 119.592 1.76542C117.962 0.979455 116.026 0.586474 113.784 0.586474H107.628V5.12759Z" fill="#88889B"/>
<path d="M130.906 0.586474V21.1088C130.906 22.7972 131.168 24.3109 131.692 25.65C132.245 26.989 133.017 28.1243 134.007 29.0558C134.996 29.9873 136.175 30.7005 137.543 31.1954C138.912 31.6902 140.411 31.9377 142.041 31.9377C143.671 31.9377 145.17 31.6902 146.538 31.1954C147.906 30.7005 149.085 29.9873 150.075 29.0558C151.065 28.1243 151.822 26.989 152.346 25.65C152.899 24.3109 153.175 22.7972 153.175 21.1088V0.586474H148.023V20.8905C148.023 22.1422 147.79 23.2484 147.324 24.209C146.888 25.1405 146.218 25.8683 145.316 26.3923C144.442 26.9162 143.351 27.1782 142.041 27.1782C140.731 27.1782 139.625 26.9162 138.722 26.3923C137.849 25.8683 137.18 25.1405 136.714 24.209C136.277 23.2484 136.059 22.1422 136.059 20.8905V0.586474H130.906Z" fill="#88889B"/>
<path d="M161.09 0.586474V31.1517H166.242V0.586474H161.09ZM164.146 5.12759H170.303C171.496 5.12759 172.53 5.31681 173.403 5.69523C174.276 6.07366 174.96 6.62674 175.455 7.35449C175.95 8.08223 176.197 8.99919 176.197 10.1054C176.197 11.1824 175.95 12.0994 175.455 12.8562C174.96 13.584 174.276 14.1371 173.403 14.5155C172.53 14.8648 171.496 15.0395 170.303 15.0395H164.146V19.5806H170.303C172.544 19.5806 174.48 19.2021 176.11 18.4453C177.74 17.6593 179.007 16.5677 179.909 15.1705C180.811 13.7441 181.263 12.0557 181.263 10.1054C181.263 8.15501 180.811 6.46664 179.909 5.04026C179.007 3.61389 177.74 2.52227 176.11 1.76542C174.48 0.979455 172.544 0.586474 170.303 0.586474H164.146V5.12759Z" fill="#88889B"/>
<path fill-rule="evenodd" clip-rule="evenodd" d="M14.574 1.32397H0.086792V31.8525H32.5233V1.32397H18.0363L25.3934 9.43303H19.1673V28.0364H13.4432V9.43303H7.2169L14.574 1.32397Z" fill="#88889B"/>
</svg>
